<?xml version="1.0" standalone="no"?>
<!DOCTYPE svg PUBLIC "-//W3C//DTD SVG 20010904//EN"
 "http://www.w3.org/TR/2001/REC-SVG-20010904/DTD/svg10.dtd">
<svg version="1.0" xmlns="http://www.w3.org/2000/svg"
 width="2048.000000pt" height="2048.000000pt" viewBox="0 0 2048.000000 2048.000000"
 preserveAspectRatio="xMidYMid meet">
<metadata>
Created by potrace 1.14, written by Peter Selinger 2001-2017
</metadata>
<g transform="translate(0.000000,2048.000000) scale(0.100000,-0.100000)"
fill="#000000" stroke="none">
<path d="M16460 18790 c-19 -4 -50 -10 -68 -14 -159 -31 -308 -128 -411 -268
-151 -203 -208 -600 -136 -949 29 -140 68 -228 187 -428 162 -271 231 -466
262 -746 3 -27 8 -70 11 -95 10 -94 15 -248 20 -633 3 -218 7 -493 10 -610 36
-1690 15 -4571 -40 -5382 -3 -38 -8 -110 -11 -160 -11 -177 -21 -302 -29 -355
-2 -14 -7 -52 -10 -85 -3 -33 -8 -67 -10 -75 -2 -8 -7 -35 -10 -60 -35 -257
-117 -536 -218 -735 -142 -281 -157 -316 -182 -436 -41 -195 -36 -504 11 -669
73 -255 233 -406 474 -449 70 -12 274 -4 360 13 101 22 311 84 325 97 5 5 15
9 23 9 20 0 252 104 342 152 322 176 610 441 772 713 73 121 145 311 163 425
3 19 9 60 14 90 10 59 7 296 -3 343 -12 50 -39 110 -93 201 -46 79 -87 168
-98 216 -28 116 -42 197 -51 278 -3 37 -8 75 -10 85 -24 132 -24 2809 0 3017
2 14 7 56 11 94 25 242 91 426 177 495 95 76 232 59 342 -43 151 -140 246
-416 301 -876 4 -38 12 -124 20 -210 26 -323 27 -1471 0 -1885 -1 -22 -5 -87
-9 -145 -4 -58 -9 -125 -11 -150 -18 -184 -20 -203 -36 -305 -18 -117 -55
-262 -110 -430 -28 -88 -53 -167 -54 -175 -2 -8 -4 -15 -5 -15 -1 0 -3 -7 -5
-15 -1 -8 -8 -42 -15 -75 -17 -79 -17 -266 0 -335 53 -223 218 -274 485 -150
342 158 762 557 1069 1014 168 252 254 455 263 626 7 124 -7 162 -70 190 -105
46 -145 139 -163 370 -3 42 -6 232 -19 1125 -10 665 -18 938 -29 1060 -2 17
-6 66 -10 110 -4 44 -9 87 -11 95 -2 8 -7 36 -10 63 -24 211 -115 551 -211
792 -72 180 -246 491 -336 600 -9 11 -44 56 -79 100 -35 44 -120 136 -189 205
-97 97 -144 135 -209 172 -95 53 -188 75 -267 63 -27 -4 -49 -6 -49 -5 0 11
-117 -67 -154 -103 -86 -84 -137 -169 -294 -497 -86 -179 -131 -219 -195 -174
-49 34 -103 156 -116 261 -4 26 -10 80 -15 118 -11 86 -8 499 14 1845 2 173 8
495 11 715 9 570 9 1018 0 1107 -16 173 -61 275 -181 409 -92 103 -152 146
-310 224 -227 111 -485 199 -675 230 -25 4 -54 9 -65 12 -35 8 -349 11 -385 3z"/>
<path d="M8937 16914 c-1 -1 -33 -4 -72 -8 -58 -5 -180 -28 -325 -61 -182 -42
-566 -185 -725 -271 -203 -109 -271 -150 -385 -232 -188 -137 -330 -281 -443
-450 -171 -256 -234 -525 -203 -864 11 -112 15 -137 37 -213 30 -100 72 -176
164 -290 107 -132 140 -182 180 -269 72 -155 111 -358 131 -681 23 -386 28
-756 28 -2175 1 -1273 -3 -1605 -19 -1770 -3 -25 -7 -76 -10 -115 -5 -80 -14
-159 -30 -285 -21 -161 -80 -431 -109 -495 -8 -16 -17 -41 -21 -55 -24 -80
-109 -208 -169 -253 -55 -42 -99 -57 -169 -57 -158 0 -284 136 -371 402 -42
126 -81 313 -101 473 -3 28 -8 64 -10 80 -16 121 -25 237 -41 555 -3 58 -7
1475 -9 3150 -1 1675 -5 3070 -9 3100 -12 108 -18 155 -22 161 -2 3 -6 21 -9
40 -10 54 -57 131 -94 153 -36 21 -94 25 -176 12 -53 -8 -325 -97 -372 -121
-15 -8 -35 -15 -43 -15 -9 0 -20 -4 -25 -8 -6 -5 -26 -15 -45 -22 -130 -50
-447 -210 -599 -302 -34 -21 -65 -38 -67 -38 -3 0 -10 -4 -17 -10 -7 -5 -64
-44 -127 -86 -173 -116 -292 -214 -425 -348 -219 -221 -335 -407 -397 -641
-19 -68 -22 -108 -22 -270 -1 -384 27 -466 220 -642 42 -39 101 -117 129 -173
35 -69 93 -260 108 -355 3 -16 10 -59 16 -95 5 -36 13 -87 16 -115 4 -27 8
-61 10 -75 2 -14 7 -56 10 -95 4 -38 8 -86 10 -105 2 -19 7 -91 11 -160 3 -69
8 -152 11 -185 2 -33 6 -564 8 -1180 3 -1084 10 -1772 20 -2000 4 -98 12 -279
20 -435 2 -30 6 -95 9 -145 6 -84 9 -119 21 -250 2 -27 7 -77 10 -110 3 -33 8
-76 10 -95 12 -109 17 -148 20 -170 2 -14 7 -45 10 -70 11 -77 35 -234 39
-256 2 -12 7 -37 10 -55 3 -19 12 -68 21 -109 9 -41 19 -88 22 -105 6 -38 46
-190 85 -325 95 -329 245 -638 417 -860 185 -239 443 -424 716 -516 105 -35
250 -43 348 -20 198 46 407 206 586 446 31 41 61 80 66 87 6 6 64 91 130 190
135 201 208 283 252 283 41 0 89 -34 112 -79 34 -66 48 -148 56 -336 3 -66 7
-167 10 -225 16 -363 85 -554 240 -656 93 -62 175 -79 385 -79 183 0 312 17
499 65 683 174 1178 592 1365 1152 19 59 38 122 41 140 3 18 8 40 10 48 7 24
14 71 21 130 3 30 8 66 10 80 6 31 5 296 0 370 -5 69 -16 150 -22 172 -3 9 -7
26 -9 37 -10 43 -14 57 -28 97 -30 82 -69 145 -144 235 -119 140 -140 168
-177 244 -62 128 -95 266 -113 480 -8 90 -9 5173 -2 6450 3 583 -2 884 -16
928 -2 6 -6 36 -10 66 -16 149 -69 342 -121 442 -69 132 -174 209 -290 213
-30 1 -55 1 -57 0z"/>
<path d="M12339 16846 c-2 -2 -38 -6 -79 -10 -125 -10 -397 -86 -535 -150
-451 -208 -765 -425 -1106 -765 -251 -251 -415 -475 -551 -750 -83 -170 -79
-160 -117 -276 -30 -90 -55 -184 -65 -240 -3 -16 -8 -39 -10 -51 -2 -12 -7
-43 -10 -70 -4 -27 -9 -65 -11 -84 -6 -40 -6 -370 0 -415 2 -16 6 -66 10 -110
15 -178 67 -377 127 -485 65 -117 140 -185 279 -255 207 -105 223 -137 253
-525 12 -160 19 -310 31 -670 25 -746 25 -4716 0 -5380 -2 -58 -6 -181 -10
-275 -6 -189 -11 -289 -20 -415 -4 -47 -8 -110 -10 -140 -4 -52 -12 -129 -20
-195 -2 -16 -7 -52 -10 -80 -7 -62 -22 -155 -35 -215 -5 -25 -12 -56 -14 -70
-7 -44 -37 -153 -58 -215 -52 -149 -110 -247 -235 -395 -44 -52 -93 -115 -110
-140 -52 -78 -101 -222 -118 -345 -24 -185 -24 -503 0 -633 1 -10 6 -37 10
-62 8 -46 9 -56 24 -125 13 -59 59 -211 77 -253 9 -20 17 -44 19 -52 2 -8 24
-60 50 -115 25 -55 46 -101 46 -102 -1 -2 15 -27 34 -57 19 -30 35 -58 35 -61
0 -3 23 -41 52 -83 349 -520 846 -840 1398 -898 118 -12 383 -6 433 11 7 2 30
7 52 10 63 9 169 36 183 47 6 6 12 8 12 5 0 -4 31 7 69 23 429 183 723 536
839 1010 24 97 30 125 38 195 3 28 9 73 13 102 8 53 6 412 -2 448 -3 11 -8 40
-11 65 -21 156 -80 281 -209 444 -110 138 -146 195 -192 303 -33 76 -78 230
-89 309 -4 22 -8 50 -11 63 -2 13 -7 46 -10 75 -4 28 -8 65 -10 81 -24 181
-24 771 -1 895 3 14 7 42 10 63 17 110 55 211 88 228 33 18 69 1 188 -86 354
-259 594 -336 825 -265 486 151 948 722 1298 1606 117 295 262 732 312 944 2
8 22 87 44 175 22 88 42 171 45 185 2 14 11 52 19 85 9 33 18 74 21 90 2 17
20 109 40 205 19 96 37 189 39 205 3 17 10 59 16 95 17 92 19 107 26 159 4 25
10 69 15 96 5 28 12 75 16 105 3 30 7 57 9 60 1 3 6 34 10 70 3 36 8 76 10 90
1 14 6 50 9 80 4 30 9 71 11 90 5 40 13 111 20 190 3 30 7 80 10 110 10 108
17 194 30 395 26 378 25 1143 0 1515 -2 30 -7 93 -10 140 -8 119 -14 195 -21
265 -3 33 -8 76 -9 95 -14 141 -25 248 -30 285 -2 17 -7 53 -10 80 -3 28 -10
79 -15 115 -5 36 -12 85 -15 110 -12 90 -16 116 -25 165 -5 28 -12 68 -15 90
-31 215 -125 667 -190 915 -96 361 -223 736 -335 986 -29 65 -150 306 -160
319 -4 6 -20 33 -35 60 -123 225 -349 483 -525 602 -343 231 -666 205 -1020
-82 -37 -30 -220 -213 -264 -265 -21 -25 -101 -124 -177 -222 -137 -174 -188
-228 -214 -228 -24 0 -53 50 -69 118 -20 88 -25 162 -31 432 -6 248 -9 287
-31 374 -39 151 -105 209 -251 222 -37 3 -71 8 -74 10 -3 2 -8 2 -10 0z m808
-3211 c81 -12 173 -88 255 -210 69 -102 173 -392 204 -565 3 -14 9 -41 14 -60
4 -19 12 -57 16 -85 4 -27 8 -52 9 -55 2 -11 20 -123 30 -195 9 -60 10 -71 20
-160 4 -38 8 -77 10 -85 1 -8 6 -53 10 -100 4 -47 8 -101 10 -120 2 -19 6 -91
10 -160 4 -69 8 -143 10 -165 6 -80 18 -575 18 -760 0 -178 -11 -622 -18 -745
-8 -151 -16 -269 -20 -300 -2 -19 -7 -64 -10 -99 -4 -35 -8 -75 -10 -90 -1
-14 -6 -55 -10 -91 -4 -36 -9 -74 -11 -85 -3 -11 -7 -38 -10 -60 -3 -22 -12
-76 -20 -120 -9 -44 -17 -91 -20 -105 -12 -62 -65 -251 -89 -315 -115 -306
-269 -449 -471 -440 -163 7 -264 97 -329 289 -34 100 -41 142 -66 356 -8 73
-4 1899 5 2285 11 464 18 676 31 955 6 122 8 159 20 325 9 126 24 279 30 315
2 14 7 52 10 85 3 33 7 67 10 75 2 8 6 31 9 50 7 44 14 77 20 98 3 9 8 33 11
52 8 46 53 157 80 197 28 42 65 71 112 87 37 13 51 13 130 1z"/>
<path d="M2327 15124 c-1 -2 -25 -5 -52 -8 -122 -12 -263 -74 -442 -193 -402
-269 -773 -714 -1133 -1363 -55 -99 -240 -464 -240 -473 0 -3 -14 -36 -31 -74
-16 -37 -35 -79 -41 -93 -5 -14 -16 -38 -23 -55 -117 -264 -268 -772 -309
-1037 -7 -43 -13 -86 -26 -173 -25 -170 -35 -642 -16 -795 4 -36 10 -83 12
-105 5 -46 30 -205 39 -250 60 -306 137 -579 246 -866 183 -487 444 -950 745
-1329 121 -152 406 -442 532 -540 140 -110 289 -181 442 -210 54 -11 205 -14
246 -6 12 2 39 7 60 11 142 22 323 111 479 235 246 197 500 562 660 950 14 36
32 79 40 95 39 87 177 534 199 650 3 11 10 43 16 70 6 28 14 61 16 75 3 14 7
32 9 40 3 8 7 33 10 55 4 22 10 56 15 75 7 30 19 99 35 210 2 14 7 48 10 75 4
28 8 61 10 75 2 14 7 52 10 85 4 33 9 74 11 90 2 17 6 66 9 110 3 44 8 94 10
110 27 194 27 1154 1 1425 -2 19 -7 73 -11 120 -3 47 -8 99 -10 115 -3 17 -7
55 -9 85 -9 92 -38 304 -62 445 -8 50 -17 104 -20 120 -3 17 -7 37 -9 45 -2 8
-7 29 -9 45 -5 27 -11 55 -37 182 -4 23 -16 71 -25 105 -9 35 -17 70 -19 78
-13 62 -28 119 -56 210 -17 58 -32 112 -34 120 -6 25 -85 253 -99 285 -8 17
-17 41 -21 55 -14 47 -138 314 -186 402 -177 319 -364 525 -584 644 -57 31
-192 70 -250 73 -27 1 -62 3 -77 5 -15 2 -29 2 -31 0z m-636 -1942 c112 -75
201 -307 289 -756 7 -33 13 -69 15 -80 2 -12 6 -39 9 -61 4 -22 11 -71 17
-110 6 -38 12 -81 15 -95 5 -35 31 -243 39 -315 4 -33 8 -73 10 -90 7 -62 15
-140 21 -204 3 -36 7 -86 9 -111 10 -110 17 -199 20 -255 2 -33 6 -100 10
-150 13 -175 28 -572 29 -770 0 -136 -11 -422 -17 -433 -3 -4 -8 -31 -11 -60
-24 -205 -96 -342 -186 -357 -96 -16 -218 96 -298 275 -28 64 -45 103 -47 110
0 3 -12 37 -25 75 -13 39 -25 75 -26 80 -2 6 -14 51 -27 100 -38 140 -79 335
-103 489 -3 21 -8 48 -10 60 -4 20 -9 53 -19 137 -3 23 -7 53 -9 68 -2 14 -7
49 -11 76 -3 28 -8 64 -11 80 -2 17 -6 53 -9 80 -3 28 -7 70 -10 95 -6 60 -14
142 -20 215 -3 33 -7 87 -10 120 -3 33 -7 92 -10 130 -2 39 -7 106 -10 150
-11 151 -13 194 -21 352 -10 212 -11 474 -1 552 26 212 93 404 178 511 75 95
170 133 230 92z"/>
</g>
</svg>
