<?xml version="1.0" standalone="no"?>
<!DOCTYPE svg PUBLIC "-//W3C//DTD SVG 20010904//EN"
 "http://www.w3.org/TR/2001/REC-SVG-20010904/DTD/svg10.dtd">
<svg version="1.0" xmlns="http://www.w3.org/2000/svg"
 width="1025.000000pt" height="1025.000000pt" viewBox="0 0 1025.000000 1025.000000"
 preserveAspectRatio="xMidYMid meet">
<metadata>
Created by potrace 1.14, written by Peter Selinger 2001-2017
</metadata>
<g transform="translate(0.000000,1025.000000) scale(0.100000,-0.100000)"
fill="#000000" stroke="none">
<path d="M8638 8795 c-13 -6 -88 -55 -168 -107 -265 -173 -553 -324 -868 -453
-54 -22 -101 -49 -113 -63 -28 -36 -25 -86 7 -111 32 -25 57 -26 115 -5 24 9
49 17 54 18 6 1 47 14 92 29 84 27 104 32 183 45 81 14 142 3 210 -39 55 -34
88 -80 120 -164 12 -33 26 -69 30 -80 22 -54 119 -376 145 -485 2 -8 15 -62
29 -120 29 -121 46 -194 52 -230 3 -14 18 -90 34 -170 45 -229 50 -262 54
-384 8 -224 -55 -406 -186 -546 -161 -171 -482 -343 -778 -416 -117 -29 -122
-30 -270 -48 -96 -12 -416 -14 -465 -3 -11 3 -40 8 -65 12 -152 25 -257 58
-370 116 -136 71 -189 142 -214 284 -16 92 -23 171 -31 350 -3 66 -7 145 -10
175 -2 30 -7 102 -10 160 -4 58 -8 121 -10 140 -2 19 -6 76 -10 125 -3 50 -8
101 -10 115 -2 14 -7 62 -10 106 -4 45 -8 94 -10 110 -2 16 -7 63 -10 104 -4
41 -9 82 -10 90 -1 8 -6 49 -10 90 -4 41 -9 82 -10 90 -2 8 -6 44 -10 80 -13
132 -25 185 -42 198 -17 13 -122 12 -233 -2 -73 -9 -138 -16 -225 -22 -49 -3
-106 -8 -125 -10 -19 -3 -199 -7 -400 -10 -326 -4 -368 -7 -389 -22 -32 -24
-36 -56 -8 -86 24 -28 40 -31 212 -41 305 -19 418 -69 444 -197 31 -154 35
-235 56 -1227 5 -209 8 -242 32 -341 26 -106 70 -188 137 -255 58 -57 191
-144 246 -160 14 -4 30 -11 35 -15 25 -20 303 -106 400 -124 253 -48 391 -60
655 -60 155 0 351 9 395 18 11 2 45 7 75 10 155 18 373 72 535 132 81 31 224
100 310 152 64 38 224 155 265 195 47 44 78 59 126 59 74 0 96 -23 116 -123
24 -116 62 -231 104 -314 66 -130 92 -142 232 -109 51 13 107 25 125 28 18 3
43 8 57 11 13 2 40 7 60 10 20 3 45 7 55 9 11 2 47 7 80 10 33 4 74 9 90 11
52 7 118 14 185 20 65 6 100 8 300 19 145 9 164 13 194 43 20 20 26 36 26 70
0 94 -28 109 -215 116 -77 3 -153 9 -170 12 -75 14 -92 19 -134 37 -91 39
-170 130 -185 213 -3 17 -8 40 -10 51 -6 30 -11 59 -51 330 -20 131 -49 309
-65 394 -28 153 -107 517 -115 530 -2 3 -6 17 -8 31 -3 13 -13 53 -22 89 -9
36 -18 70 -20 75 -1 6 -5 17 -8 25 -3 8 -19 65 -36 125 -38 137 -135 430 -196
595 -102 275 -257 643 -282 671 -19 23 -58 29 -85 14z"/>
<path d="M1708 8405 c-2 -1 -37 -5 -78 -9 -41 -3 -84 -8 -95 -10 -11 -2 -40
-7 -65 -11 -75 -12 -93 -16 -140 -26 -25 -6 -52 -12 -61 -14 -8 -2 -63 -17
-122 -34 -316 -91 -566 -229 -752 -416 -200 -199 -300 -402 -367 -738 -17 -89
-22 -148 -22 -292 -1 -219 6 -281 51 -435 31 -109 82 -226 133 -307 22 -35 40
-66 40 -68 0 -6 10 -18 86 -110 212 -254 532 -453 917 -569 109 -33 320 -81
402 -91 22 -2 58 -7 80 -10 95 -13 127 -16 245 -22 221 -13 680 -6 780 11 14
2 57 7 95 10 39 4 81 8 95 11 14 2 45 7 70 10 25 3 54 7 65 9 11 2 38 6 60 10
262 41 654 154 860 246 282 126 437 224 578 367 83 84 127 145 177 243 41 82
66 158 76 229 3 25 8 49 11 53 11 19 2 232 -11 277 -3 9 -8 31 -11 50 -9 53
-61 170 -111 252 -76 123 -196 254 -335 365 -41 32 -76 62 -79 65 -7 8 -229
161 -261 179 -14 8 -77 46 -140 84 -276 167 -800 406 -1194 545 -149 53 -382
111 -500 126 -27 3 -66 8 -85 11 -38 5 -387 14 -392 9z m712 -255 c277 -49
711 -228 940 -388 318 -222 462 -450 515 -817 13 -84 14 -438 2 -490 -3 -11
-8 -42 -11 -70 -9 -69 -51 -231 -75 -293 -115 -292 -312 -467 -659 -586 -79
-27 -265 -71 -347 -82 -27 -3 -59 -8 -70 -10 -124 -24 -707 -24 -775 0 -8 3
-35 7 -60 10 -47 4 -56 6 -161 30 -353 84 -617 269 -742 521 -85 170 -116 342
-111 600 1 77 5 158 9 180 3 22 10 67 16 100 44 281 121 548 215 740 116 238
245 356 499 457 141 56 276 90 406 104 35 3 66 8 67 9 9 8 283 -4 342 -15z"/>
<path d="M5240 5079 c-18 -4 -40 -15 -50 -25 -17 -18 -19 -70 -24 -889 -4
-478 -8 -991 -9 -1139 l-2 -269 25 -19 c26 -19 30 -20 290 -33 63 -3 138 -8
165 -10 166 -15 361 -36 386 -40 9 -2 40 -6 69 -10 29 -4 62 -9 74 -11 11 -2
38 -6 61 -9 54 -8 198 -33 227 -40 13 -2 34 -7 48 -9 58 -10 192 -39 285 -63
172 -43 205 -37 221 42 1 6 16 78 34 160 18 83 34 161 36 175 3 14 11 59 19
100 8 41 17 91 20 110 4 19 12 71 20 115 8 44 16 98 20 120 11 78 15 90 36
108 28 22 79 22 204 -2 55 -10 118 -22 140 -25 78 -13 114 -27 135 -53 24 -31
25 -23 -30 -281 -23 -103 -43 -196 -45 -207 -2 -11 -32 -131 -67 -268 -76
-301 -80 -283 64 -346 26 -12 50 -21 54 -21 3 0 38 -14 77 -31 427 -183 818
-410 1123 -654 121 -97 139 -106 176 -93 31 11 29 8 130 228 103 223 251 599
346 880 62 182 169 542 186 625 3 11 20 84 39 161 20 78 38 154 40 170 3 16
10 52 16 79 14 68 39 202 45 245 3 19 7 44 10 55 2 11 7 42 10 68 4 27 9 57
11 66 3 17 11 76 21 161 2 19 8 69 14 110 17 134 37 396 44 560 3 89 -30 130
-109 136 -58 5 -512 20 -835 29 -113 2 -315 8 -450 11 -135 4 -332 7 -437 8
l-193 1 -24 -25 c-24 -24 -25 -31 -31 -210 -3 -102 -8 -207 -10 -235 -2 -27
-7 -86 -10 -130 -12 -175 -23 -286 -31 -328 -10 -52 -71 -63 -224 -42 -41 6
-91 12 -178 20 -35 3 -74 10 -87 15 -26 10 -66 50 -60 59 2 4 6 51 10 106 3
55 8 120 10 145 7 71 15 260 20 432 4 171 3 178 -54 199 -36 14 -1937 31
-2001 18z"/>
<path d="M2897 5073 c-1 -1 -187 -4 -412 -8 -600 -9 -1100 -20 -1430 -30 -93
-3 -244 -7 -335 -10 -538 -16 -556 -17 -592 -36 -24 -13 -46 -63 -42 -98 1
-14 5 -84 8 -156 4 -71 8 -146 11 -165 2 -19 7 -70 10 -113 4 -43 8 -86 10
-96 2 -9 6 -46 9 -82 4 -36 9 -76 11 -90 2 -13 6 -44 9 -69 13 -108 17 -132
40 -255 2 -11 7 -42 11 -70 5 -27 9 -52 10 -55 1 -3 5 -23 9 -45 56 -298 160
-699 263 -1020 35 -110 156 -452 173 -490 5 -11 47 -112 93 -225 47 -113 98
-234 115 -270 16 -36 46 -99 65 -141 28 -62 40 -78 65 -87 36 -12 61 -1 131
57 139 116 510 371 539 371 7 0 12 5 12 10 0 6 4 10 9 10 5 0 47 22 93 48 158
91 582 287 705 326 36 11 75 66 70 95 -2 14 -30 123 -60 241 -31 118 -58 226
-61 240 -3 14 -17 82 -32 152 -39 180 -34 185 186 229 58 11 112 22 121 24 9
2 32 6 50 9 19 3 72 12 119 21 47 8 117 20 155 25 39 6 81 12 95 15 14 2 45 7
70 10 25 3 52 8 60 10 8 2 42 6 75 10 33 3 71 8 85 10 23 4 132 18 235 32 36
4 321 57 370 68 11 3 29 7 40 9 128 27 334 95 445 148 193 92 303 201 340 338
12 46 15 507 3 585 -13 91 -78 186 -176 259 -129 96 -398 185 -667 221 -25 3
-56 8 -70 10 -146 22 -292 28 -668 29 -206 1 -374 0 -375 -1z m-208 -632 c47
-24 59 -52 66 -156 3 -44 8 -96 10 -115 2 -19 7 -74 11 -121 6 -85 5 -88 -22
-118 -30 -34 -103 -65 -179 -76 -27 -4 -59 -8 -70 -10 -138 -20 -172 -21 -205
-11 -39 14 -49 30 -55 92 -3 33 -7 70 -10 84 -2 14 -6 57 -10 95 -3 39 -8 81
-10 95 -12 76 -15 181 -5 199 18 35 62 49 171 56 57 4 106 9 107 10 2 2 39 2
83 -1 52 -2 92 -10 118 -23z"/>
</g>
</svg>
